<svg width="353" height="181" viewBox="0 0 353 181" fill="none" xmlns="http://www.w3.org/2000/svg">
<path d="M33.1549 79.587C33.1549 79.587 -12.9747 79.4615 15.0134 66.9768C26.1483 62.011 47.4083 58.2282 68.9744 55.4751" stroke="black" stroke-width="5" stroke-miterlimit="10" stroke-linecap="round" stroke-linejoin="round"/>
<path d="M112.819 79.587C112.819 79.587 158.949 79.4615 130.961 66.9768C119.826 62.011 98.566 58.2282 76.9999 55.4751" stroke="black" stroke-width="5" stroke-miterlimit="10" stroke-linecap="round" stroke-linejoin="round"/>
<path d="M112.819 100.647C112.819 100.647 158.949 100.772 130.961 113.257C119.826 118.223 98.566 122.006 76.9999 124.759" stroke="black" stroke-width="5" stroke-miterlimit="10" stroke-linecap="round" stroke-linejoin="round"/>
<path d="M33.1549 100.647C33.1549 100.647 -12.9747 100.772 15.0134 113.257C26.1483 118.223 47.4083 122.006 68.9744 124.759" stroke="black" stroke-width="5" stroke-miterlimit="10" stroke-linecap="round" stroke-linejoin="round"/>
<path d="M73.1918 137.934C49.2426 137.934 23.4653 126.92 23.4653 102.733C23.4653 93.5549 26.3925 87.0552 34.6491 77.8895C35.1465 77.3363 36.4348 75.9449 37.7485 74.5237C39.1281 73.0322 40.5545 71.4897 41.137 70.8429C47.0063 64.3261 50.5202 59.1816 53.2689 53.0861C57.1633 44.4332 64.6121 39.2695 73.1918 39.2695C81.9011 39.2695 89.1628 44.3055 93.1147 53.084C95.8633 59.1795 99.3794 64.324 105.249 70.8429C105.833 71.4919 107.268 73.0429 108.654 74.5428C109.964 75.9577 111.241 77.3385 111.737 77.8895C119.993 87.053 122.92 93.5549 122.92 102.733C122.92 113.569 117.638 122.656 107.642 129.013C98.5949 134.766 86.361 137.934 73.1918 137.934Z" fill="#00B2E3" stroke="black" stroke-width="5" stroke-miterlimit="10"/>
<path d="M60.6137 55.3863C63.3156 49.3865 68.0157 45.8079 73.1899 45.8079C80.3814 45.8079 84.1547 51.8055 85.7618 55.3799C87.6537 59.5755 89.856 63.3413 92.7854 67.2922" stroke="black" stroke-width="5" stroke-miterlimit="10" stroke-linecap="round"/>
<path d="M43.0689 118.229C52.5435 119.537 62.5858 120.244 72.9872 120.244C83.3887 120.244 93.4288 119.537 102.906 118.229" stroke="black" stroke-width="5" stroke-miterlimit="10" stroke-linecap="round" stroke-linejoin="round"/>
<path d="M99.9741 83.1753C91.3668 82.1137 82.3237 81.5435 72.9893 81.5435C63.655 81.5435 54.6098 82.1137 46.0046 83.1753" stroke="black" stroke-width="5" stroke-miterlimit="10" stroke-linecap="round" stroke-linejoin="round"/>
<path d="M39.0019 101.518H106.972" stroke="black" stroke-width="5" stroke-miterlimit="10" stroke-linecap="round" stroke-linejoin="round"/>
<path d="M200.999 51H169.001C166.802 51 165 52.7785 165 54.9537C165 57.1289 166.8 58.9075 169.001 58.9075H174.372V143.158C174.372 149.121 179.309 154 185.343 154C191.377 154 196.314 149.121 196.314 143.158V58.9054H200.999C203.198 58.9054 205 57.1268 205 54.9516C205 52.7764 203.2 51 200.999 51Z" stroke="black" stroke-width="5" stroke-miterlimit="10"/>
<path d="M189.309 19.2313C189.309 22.8291 185.024 32.4989 185.024 32.4989C185.024 32.4989 180.738 22.8291 180.738 19.2313C180.738 15.6335 182.658 12.7188 185.024 12.7188C187.39 12.7188 189.309 15.6357 189.309 19.2313Z" stroke="black" stroke-width="4" stroke-miterlimit="10"/>
<path d="M189.309 131.252C189.309 127.655 185.024 117.985 185.024 117.985C185.024 117.985 180.738 127.655 180.738 131.252C180.738 134.85 182.658 137.765 185.024 137.765C187.39 137.765 189.309 134.85 189.309 131.252Z" stroke="black" stroke-width="4" stroke-miterlimit="10"/>
<path d="M185.076 32.4995V118.735" stroke="black" stroke-width="4" stroke-miterlimit="10"/>
<path d="M176 64H195" stroke="black" stroke-width="5" stroke-miterlimit="10"/>
<path d="M261.446 86.4999C256.4 79.6937 253.732 71.5699 253.732 63.0064C253.732 52.5067 257.758 42.6641 265.068 35.2914C272.377 27.9205 282.064 23.9399 292.33 24.0916C302.279 24.2356 311.652 28.319 318.723 35.5895C325.793 42.8597 329.737 52.4688 329.827 62.6461C329.905 71.371 327.222 79.6408 322.069 86.5621C313.705 97.7979 309.098 111.561 309.098 125.316V140.367C309.098 147.043 303.788 152.474 297.261 152.474H286.251C279.725 152.474 274.415 147.042 274.415 140.367V125.317C274.414 111.41 269.962 97.9868 261.446 86.4999ZM318.188 83.5392C322.679 77.5075 325.017 70.2985 324.949 62.6917C324.787 44.4172 310.124 29.3396 292.262 29.0811C283.301 28.958 274.865 32.4193 268.494 38.8452C262.12 45.2725 258.611 53.8533 258.611 63.0067C258.611 70.4722 260.935 77.5534 265.332 83.485C274.306 95.5887 279.138 109.709 279.336 124.378H304.226C304.43 109.852 309.37 95.3838 318.188 83.5392ZM304.219 138.676V136.656L279.293 139.577V140.367C279.293 140.782 279.335 141.188 279.402 141.584L304.219 138.676ZM304.219 131.633V129.368H279.293V134.554L304.219 131.633ZM297.261 147.484C299.881 147.484 302.166 145.994 303.353 143.8L282.355 146.26C283.467 147.032 284.808 147.484 286.251 147.484H297.261V147.484Z" fill="black"/>
<path d="M315.899 66.7603C316.09 65.4546 316.18 64.1133 316.168 62.774C316.156 61.3961 317.238 60.2691 318.585 60.2564C319.923 60.2445 321.034 61.3506 321.046 62.7285C321.061 64.3286 320.952 65.9327 320.724 67.4965C320.544 68.7347 319.503 69.6239 318.315 69.6239C318.195 69.6239 318.074 69.6149 317.952 69.5963C316.62 69.3927 315.701 68.1233 315.899 66.7603Z" fill="black"/>
<path d="M301.546 104.657C301.293 104.657 301.036 104.616 300.783 104.531C299.504 104.101 298.807 102.691 299.228 101.382C301.931 92.9735 305.96 85.1395 311.203 78.0981C312.069 76.9342 312.837 75.6944 313.484 74.4126C314.103 73.1885 315.574 72.7094 316.771 73.3422C317.968 73.9749 318.436 75.4801 317.818 76.7043C317.04 78.2418 316.121 79.7278 315.083 81.1213C310.171 87.7199 306.395 95.0609 303.862 102.941C303.524 103.991 302.571 104.657 301.546 104.657Z" fill="black"/>
<path d="M266.155 71.5507C267.392 71.0054 268.827 71.5896 269.36 72.855C270.132 74.6906 271.132 76.4414 272.332 78.0588C273.146 79.1565 272.935 80.7217 271.862 81.5543C271.422 81.8963 270.904 82.0613 270.39 82.0613C269.653 82.0613 268.925 81.721 268.445 81.0736C267.008 79.1352 265.808 77.0342 264.88 74.829C264.347 73.5636 264.917 72.0955 266.155 71.5507Z" fill="black"/>
<path d="M291.779 38.0597C278.331 38.0597 267.39 49.2512 267.39 63.0073C267.39 63.7893 267.425 64.5774 267.495 65.3495C267.618 66.7217 266.63 67.9359 265.289 68.062C265.213 68.069 265.138 68.0726 265.063 68.0726C263.817 68.0726 262.753 67.1003 262.637 65.8056C262.554 64.8825 262.512 63.941 262.512 63.0073C262.512 46.4998 275.641 33.0698 291.779 33.0698C293.126 33.0698 294.219 34.1869 294.219 35.5647C294.219 36.9426 293.126 38.0597 291.779 38.0597Z" fill="black"/>
<path d="M291.779 19.7844C290.432 19.7844 289.34 18.6674 289.34 17.2895V3.31792C289.34 1.94006 290.432 0.822998 291.779 0.822998C293.126 0.822998 294.219 1.94006 294.219 3.31792V17.2895C294.219 18.6674 293.126 19.7844 291.779 19.7844Z" fill="black"/>
<path d="M316.456 24.7134C316.004 25.5141 315.184 25.9615 314.341 25.9615C313.928 25.9615 313.508 25.8538 313.124 25.6269C311.958 24.938 311.558 23.4121 312.231 22.2189L319.057 10.1236C319.731 8.93004 321.223 8.52121 322.389 9.21014C323.556 9.89906 323.956 11.4249 323.282 12.6182L316.456 24.7134Z" fill="black"/>
<path d="M239.658 91.3443L251.482 84.3619C252.649 83.6726 254.141 84.0818 254.814 85.2754C255.488 86.4686 255.088 87.9945 253.921 88.6834L242.096 95.6658C241.712 95.8927 241.293 96.0005 240.879 96.0005C240.036 96.0005 239.216 95.5527 238.765 94.7524C238.091 93.5591 238.491 92.0332 239.658 91.3443Z" fill="black"/>
<path d="M343.907 35.5403L332.083 42.5228C331.699 42.7496 331.279 42.8574 330.865 42.8574C330.022 42.8574 329.203 42.4097 328.751 41.6093C328.077 40.4161 328.477 38.8902 329.644 38.2013L341.469 31.2188C342.635 30.5296 344.127 30.9387 344.801 32.1323C345.474 33.3255 345.074 34.8511 343.907 35.5403Z" fill="black"/>
<path d="M233.002 60.9473H246.661C248.008 60.9473 249.1 62.0643 249.1 63.4422C249.1 64.8201 248.008 65.9371 246.661 65.9371H233.002C231.655 65.9371 230.563 64.8201 230.563 63.4422C230.563 62.0643 231.655 60.9473 233.002 60.9473Z" fill="black"/>
<path d="M334.463 63.4422C334.463 62.0643 335.555 60.9473 336.902 60.9473H350.561C351.908 60.9473 353 62.0643 353 63.4422C353 64.8201 351.908 65.9371 350.561 65.9371H336.902C335.555 65.9371 334.463 64.8201 334.463 63.4422Z" fill="black"/>
<path d="M252.7 42.8573C252.286 42.8573 251.867 42.7495 251.482 42.5226L239.658 35.5402C238.491 34.8512 238.091 33.3253 238.765 32.1321C239.438 30.9389 240.93 30.5297 242.096 31.2186L253.921 38.2011C255.088 38.89 255.488 40.4159 254.814 41.6092C254.363 42.4095 253.542 42.8573 252.7 42.8573Z" fill="black"/>
<path d="M332.083 84.3618L343.908 91.3442C345.074 92.0331 345.474 93.559 344.801 94.7522C344.349 95.5526 343.529 96.0004 342.686 96.0004C342.272 96.0004 341.853 95.8926 341.469 95.6657L329.644 88.6833C328.477 87.9943 328.077 86.4685 328.751 85.2752C329.424 84.0817 330.917 83.6728 332.083 84.3618Z" fill="black"/>
<path d="M270.439 25.6269C270.055 25.8538 269.636 25.9615 269.222 25.9615C268.379 25.9615 267.559 25.5138 267.107 24.7134L260.281 12.6182C259.608 11.4249 260.008 9.89906 261.174 9.21014C262.34 8.52121 263.833 8.93004 264.506 10.1236L271.332 22.2189C272.006 23.4121 271.606 24.938 270.439 25.6269Z" fill="black"/>
</svg>
