<svg width="104" height="104" viewBox="0 0 104 104" fill="none" xmlns="http://www.w3.org/2000/svg">
<path d="M82.1171 64.4242C79.988 62.2073 77.4199 61.022 74.6981 61.022C71.9982 61.022 69.4081 62.1853 67.1912 64.4023L60.255 71.3165C59.6843 71.0092 59.1136 70.7238 58.5649 70.4385C57.7747 70.0434 57.0284 69.6702 56.3918 69.2752C49.8947 65.1486 43.9901 59.7708 38.3271 52.8127C35.5833 49.3446 33.7395 46.4253 32.4006 43.4621C34.2005 41.8158 35.8687 40.1037 37.493 38.4575C38.1076 37.8429 38.7222 37.2063 39.3368 36.5917C43.9462 31.9822 43.9462 26.0119 39.3368 21.4024L33.3444 15.4101C32.664 14.7296 31.9616 14.0272 31.3031 13.3248C29.9861 11.9639 28.6033 10.5591 27.1765 9.24214C25.0474 7.13495 22.5012 6.0155 19.8233 6.0155C17.1454 6.0155 14.5553 7.13495 12.3603 9.24214C12.3384 9.26409 12.3384 9.26409 12.3164 9.28604L4.85345 16.8149C2.04386 19.6245 0.441519 23.0486 0.0903206 27.0216C-0.436477 33.4309 1.45122 39.4013 2.89991 43.3084C6.4558 52.9005 11.7677 61.7902 19.6916 71.3165C29.3057 82.7963 40.8733 91.8616 54.0871 98.249C59.1356 100.642 65.8742 103.473 73.403 103.956C73.864 103.978 74.3469 104 74.7859 104C79.8563 104 84.1146 102.178 87.451 98.5563C87.4729 98.5124 87.5168 98.4905 87.5388 98.4466C88.6802 97.0637 89.9972 95.8126 91.38 94.4737C92.3239 93.5737 93.2897 92.6299 94.2335 91.6421C96.4065 89.3813 97.5479 86.7473 97.5479 84.0474C97.5479 81.3257 96.3846 78.7136 94.1676 76.5186L82.1171 64.4242ZM89.9752 87.5375C89.9533 87.5375 89.9533 87.5594 89.9752 87.5375C89.1192 88.4594 88.2412 89.2935 87.2973 90.2154C85.8706 91.5763 84.4219 93.003 83.061 94.6054C80.8441 96.9759 78.232 98.0954 74.8078 98.0954C74.4786 98.0954 74.1274 98.0954 73.7981 98.0734C67.279 97.6564 61.2208 95.1102 56.6772 92.9372C44.2535 86.9229 33.3444 78.3844 24.2791 67.5631C16.7942 58.5416 11.7896 50.2007 8.47519 41.2451C6.43385 35.7796 5.68755 31.5213 6.0168 27.5045C6.2363 24.9363 7.22404 22.8072 9.04589 20.9853L16.5308 13.5004C17.6064 12.4907 18.7477 11.942 19.8672 11.942C21.25 11.942 22.3695 12.7761 23.0719 13.4785C23.0938 13.5004 23.1158 13.5224 23.1377 13.5443C24.4767 14.7955 25.7498 16.0905 27.0887 17.4734C27.7692 18.1758 28.4716 18.8782 29.174 19.6025L35.1663 25.5948C37.493 27.9215 37.493 30.0726 35.1663 32.3993C34.5297 33.0358 33.9151 33.6724 33.2786 34.287C31.4348 36.1747 29.6788 37.9307 27.7692 39.6428C27.7253 39.6867 27.6814 39.7086 27.6594 39.7525C25.7717 41.6402 26.1229 43.484 26.518 44.7352C26.54 44.801 26.5619 44.8668 26.5839 44.9327C28.1423 48.7081 30.3373 52.264 33.6737 56.5003L33.6956 56.5223C39.7538 63.9852 46.1412 69.802 53.1872 74.2578C54.0871 74.8285 55.009 75.2894 55.887 75.7284C56.6772 76.1235 57.4235 76.4967 58.06 76.8918C58.1478 76.9357 58.2356 77.0015 58.3234 77.0454C59.0697 77.4186 59.7721 77.5942 60.4965 77.5942C62.3183 77.5942 63.4597 76.4528 63.8329 76.0796L71.3397 68.5728C72.086 67.8265 73.2713 66.9265 74.6542 66.9265C76.0151 66.9265 77.1345 67.7826 77.815 68.5289C77.8369 68.5508 77.8369 68.5508 77.8589 68.5728L89.9533 80.6672C92.2141 82.9061 92.2141 85.2108 89.9752 87.5375Z" fill="black"/>
<path d="M56.1285 24.7388C61.8793 25.7046 67.1034 28.4264 71.2739 32.5969C75.4444 36.7674 78.1442 41.9915 79.132 47.7423C79.3734 49.191 80.6246 50.2007 82.0513 50.2007C82.2269 50.2007 82.3805 50.1788 82.5561 50.1568C84.1804 49.8934 85.256 48.3569 84.9926 46.7326C83.8073 39.7745 80.5148 33.431 75.4883 28.4045C70.4617 23.3779 64.1182 20.0854 57.1601 18.9001C55.5358 18.6367 54.0213 19.7123 53.7359 21.3146C53.4506 22.917 54.5042 24.4754 56.1285 24.7388Z" fill="black"/>
<path d="M103.804 45.8766C101.85 34.4187 96.4504 23.9925 88.1534 15.6955C79.8563 7.3984 69.4301 1.99872 57.9722 0.0451762C56.3699 -0.240173 54.8553 0.857323 54.57 2.45967C54.3066 4.08396 55.3821 5.5985 57.0064 5.88385C67.2351 7.6179 76.5638 12.4688 83.9829 19.8659C91.402 27.285 96.2309 36.6137 97.965 46.8424C98.2064 48.2911 99.4576 49.3008 100.884 49.3008C101.06 49.3008 101.214 49.2788 101.389 49.2569C102.992 49.0154 104.089 47.4789 103.804 45.8766Z" fill="black"/>
</svg>
