<svg width="356" height="161" viewBox="0 0 356 161" fill="none" xmlns="http://www.w3.org/2000/svg">
<path d="M276.168 0C221.905 0 196.336 25.7583 196.336 80.4C196.336 135.042 221.905 160.8 276.168 160.8C330.431 160.8 356 135.042 356 80.4C356 25.7583 330.431 0 276.168 0Z" fill="#04AEDF"/>
<path d="M80.7081 0C26.4453 0 0.876343 25.7583 0.876343 80.4C0.876343 135.042 26.4453 160.8 80.7081 160.8C134.971 160.8 160.54 135.042 160.54 80.4C160.54 25.7583 134.971 0 80.7081 0Z" fill="#8EC641"/>
<path d="M251.641 78.4114H104.762V104.17H251.641V78.4114Z" fill="#010101"/>
<path d="M162.244 91.1957C164.044 90.154 166.506 89.207 166.506 87.3131C166.506 86.3661 165.843 85.9873 165.085 85.9873C163.949 85.9873 162.718 86.7449 161.866 87.5972L159.309 84.8509C160.445 83.5251 162.813 82.3887 165.748 82.3887C169.347 82.3887 171.336 84.188 171.336 87.1237C171.336 89.3964 170.105 90.8169 168.211 92.048C166.032 93.4685 165.37 93.8473 164.612 94.4155H171.336V98.1088H159.309C159.214 94.4155 159.498 92.8056 162.244 91.1957Z" fill="white"/>
<path d="M192.738 98.0141V91.4798C192.738 90.3434 192.17 89.87 191.601 89.87C190.939 89.87 190.086 90.5328 189.707 91.4798V97.9194H185.541V91.3851C185.541 90.2487 184.972 89.7753 184.404 89.7753C183.741 89.7753 182.889 90.4381 182.51 91.3851V97.8247H178.344V86.4608H182.131V88.1654C182.984 86.9343 184.404 86.2714 186.393 86.2714C188.287 86.2714 189.139 87.2184 189.518 88.2601C190.37 87.029 191.791 86.2714 193.59 86.2714C196.621 86.2714 196.999 88.8283 196.999 90.4381V98.0141H192.738Z" fill="white"/>
<path d="M118.114 98.7717C117.452 94.2261 114.8 90.154 111.012 87.6919C104.099 83.1463 92.4509 76.8014 80.7081 76.8014C68.9654 76.8014 57.3173 83.1463 50.4042 87.6919C46.5216 90.2487 43.9647 94.2261 43.3018 98.7717L39.9873 120.079C39.7979 121.405 39.7032 122.825 39.7032 124.151V144.512H121.808V124.151C121.808 122.731 121.713 121.405 121.524 120.079L118.114 98.7717Z" fill="#8FC641"/>
<path d="M118.114 98.7717C117.452 94.2261 114.8 90.154 111.012 87.6919C104.099 83.1463 92.4509 76.8014 80.7081 76.8014C68.9654 76.8014 57.3173 83.1463 50.4042 87.6919C46.5216 90.2487 43.9647 94.2261 43.3018 98.7717L39.9873 120.079C39.7979 121.405 39.7032 122.825 39.7032 124.151V144.512H121.808V124.151C121.808 122.731 121.713 121.405 121.524 120.079L118.114 98.7717Z" stroke="#010101" stroke-width="4.5217" stroke-miterlimit="10" stroke-linecap="round" stroke-linejoin="round"/>
<path d="M103.625 78.6007V34.6601C103.625 25.0007 97.8488 15.2466 90.0834 17.2353C86.2007 12.6897 82.1286 11.364 78.7194 11.364H76.5414C62.7152 11.364 51.5406 21.7809 51.5406 34.6601V78.6007H103.625Z" fill="#8FC641"/>
<path d="M103.625 78.6007V34.6601C103.625 25.0007 97.8488 15.2466 90.0834 17.2353C86.2007 12.6897 82.1286 11.364 78.7194 11.364H76.5414C62.7152 11.364 51.5406 21.7809 51.5406 34.6601V78.6007H103.625Z" stroke="#010101" stroke-width="4.5217" stroke-miterlimit="10" stroke-linecap="round" stroke-linejoin="round"/>
<path d="M98.417 54.0735C94.5343 54.0735 91.4092 50.9484 91.4092 47.0657C91.4092 43.183 94.5343 40.0579 98.417 40.0579C102.3 40.0579 105.425 43.183 105.425 47.0657C105.425 50.9484 102.3 54.0735 98.417 54.0735Z" fill="#8FC641"/>
<path d="M98.417 54.0735C94.5343 54.0735 91.4092 50.9484 91.4092 47.0657C91.4092 43.183 94.5343 40.0579 98.417 40.0579C102.3 40.0579 105.425 43.183 105.425 47.0657C105.425 50.9484 102.3 54.0735 98.417 54.0735Z" stroke="#010101" stroke-width="4.5217" stroke-miterlimit="10" stroke-linecap="round" stroke-linejoin="round"/>
<path d="M89.4205 78.506L95.9548 80.7788L85.6325 94.3208C82.5074 98.3929 76.352 98.3929 73.3216 94.2261L63.1887 81.347L69.6283 79.0742V68.6572H89.4205V78.506Z" fill="#8FC641"/>
<path d="M89.4205 78.506L95.9548 80.7788L85.6325 94.3208C82.5074 98.3929 76.352 98.3929 73.3216 94.2261L63.1887 81.347L69.6283 79.0742V68.6572H89.4205V78.506Z" stroke="#010101" stroke-width="4.5217" stroke-miterlimit="10" stroke-linecap="round" stroke-linejoin="round"/>
<path d="M79.6664 72.6347H78.6247C68.5866 72.6347 60.5371 64.4905 60.5371 54.547V45.9294C60.5371 45.9294 72.8481 46.3082 80.3293 41.8573C88.0947 37.3117 91.3145 32.1032 91.1251 31.9138C92.6403 36.27 97.7541 38.4481 97.7541 38.4481V54.547C97.7541 64.4905 89.7046 72.6347 79.6664 72.6347Z" fill="#8FC641"/>
<path d="M79.6664 72.6347H78.6247C68.5866 72.6347 60.5371 64.4905 60.5371 54.547V45.9294C60.5371 45.9294 72.8481 46.3082 80.3293 41.8573C88.0947 37.3117 91.3145 32.1032 91.1251 31.9138C92.6403 36.27 97.7541 38.4481 97.7541 38.4481V54.547C97.7541 64.4905 89.7046 72.6347 79.6664 72.6347Z" stroke="#010101" stroke-width="4.5217" stroke-miterlimit="10" stroke-linecap="round" stroke-linejoin="round"/>
<path d="M57.6014 115.818L56.3703 131.159L57.6014 144.038" fill="#8FC641"/>
<path d="M57.6014 115.818L56.3703 131.159L57.6014 144.038" stroke="#010101" stroke-width="4.5217" stroke-miterlimit="10" stroke-linecap="round" stroke-linejoin="round"/>
<path d="M101.731 115.818L103.057 131.159L101.731 144.038" fill="#8FC641"/>
<path d="M101.731 115.818L103.057 131.159L101.731 144.038" stroke="#010101" stroke-width="4.5217" stroke-miterlimit="10" stroke-linecap="round" stroke-linejoin="round"/>
<path d="M72.0905 89.9646H86.9583" stroke="#010101" stroke-width="4.5217" stroke-miterlimit="10" stroke-linecap="round" stroke-linejoin="round"/>
<path d="M251.641 40.7208V31.6297C251.641 18.7505 262.058 8.33356 274.937 8.33356H277.021C289.9 8.33356 300.317 18.7505 300.317 31.6297V40.7208" fill="#00B2E2"/>
<path d="M251.641 40.7208V31.6297C251.641 18.7505 262.058 8.33356 274.937 8.33356H277.021C289.9 8.33356 300.317 18.7505 300.317 31.6297V40.7208" stroke="#010101" stroke-width="4.5217" stroke-miterlimit="10" stroke-linecap="round" stroke-linejoin="round"/>
<path d="M288.953 74.718H263.289L239.993 83.3357C233.932 86.1767 230.049 92.2375 230.049 98.9611V144.417H322.192V98.9611C322.192 92.2375 318.31 86.1767 312.249 83.3357L288.953 74.718Z" fill="#00B2E2"/>
<path d="M288.953 74.718H263.289L239.993 83.3357C233.932 86.1767 230.049 92.2375 230.049 98.9611V144.417H322.192V98.9611C322.192 92.2375 318.31 86.1767 312.249 83.3357L288.953 74.718Z" stroke="#010101" stroke-width="4.5217" stroke-miterlimit="10" stroke-linecap="round" stroke-linejoin="round"/>
<path d="M255.903 53.4106C251.546 53.4106 248.042 49.9067 248.042 45.5505C248.042 41.1943 251.546 37.6904 255.903 37.6904C260.259 37.6904 263.763 41.1943 263.763 45.5505C263.668 49.9067 260.164 53.4106 255.903 53.4106Z" fill="#00B2E2"/>
<path d="M255.903 53.4106C251.546 53.4106 248.042 49.9067 248.042 45.5505C248.042 41.1943 251.546 37.6904 255.903 37.6904C260.259 37.6904 263.763 41.1943 263.763 45.5505C263.668 49.9067 260.164 53.4106 255.903 53.4106Z" stroke="#010101" stroke-width="4.5217" stroke-miterlimit="10" stroke-linecap="round" stroke-linejoin="round"/>
<path d="M294.351 53.4106C289.994 53.4106 286.49 49.9067 286.49 45.5505C286.49 41.1943 289.994 37.6904 294.351 37.6904C298.707 37.6904 302.211 41.1943 302.211 45.5505C302.211 49.9067 298.707 53.4106 294.351 53.4106Z" fill="#00B2E2"/>
<path d="M294.351 53.4106C289.994 53.4106 286.49 49.9067 286.49 45.5505C286.49 41.1943 289.994 37.6904 294.351 37.6904C298.707 37.6904 302.211 41.1943 302.211 45.5505C302.211 49.9067 298.707 53.4106 294.351 53.4106Z" stroke="#010101" stroke-width="4.5217" stroke-miterlimit="10" stroke-linecap="round" stroke-linejoin="round"/>
<path d="M286.017 76.0438L276.073 87.4077L266.225 76.0438V65.6268H286.017V76.0438Z" fill="#00B2E2"/>
<path d="M286.017 76.0438L276.073 87.4077L266.225 76.0438V65.6268H286.017V76.0438Z" stroke="#010101" stroke-width="4.5217" stroke-miterlimit="10" stroke-linecap="round" stroke-linejoin="round"/>
<path d="M276.263 69.5095H275.221C265.183 69.5095 257.134 61.3654 257.134 51.4219V37.217C257.134 37.217 264.71 39.2057 273.232 36.9329C281.661 34.6601 287.816 28.7887 287.816 28.7887L294.445 35.323V51.4219C294.35 61.4601 286.301 69.5095 276.263 69.5095Z" fill="#00B2E2"/>
<path d="M276.263 69.5095H275.221C265.183 69.5095 257.134 61.3654 257.134 51.4219V37.217C257.134 37.217 264.71 39.2057 273.232 36.9329C281.661 34.6601 287.816 28.7887 287.816 28.7887L294.445 35.323V51.4219C294.35 61.4601 286.301 69.5095 276.263 69.5095Z" stroke="#010101" stroke-width="4.5217" stroke-miterlimit="10" stroke-linecap="round" stroke-linejoin="round"/>
<path d="M246.527 101.991V144.133" stroke="#010101" stroke-width="4.5217" stroke-miterlimit="10" stroke-linecap="round" stroke-linejoin="round"/>
<path d="M305.904 101.991V144.133" stroke="#010101" stroke-width="4.5217" stroke-miterlimit="10" stroke-linecap="round" stroke-linejoin="round"/>
<path d="M280.998 95.6467H271.244L268.024 86.5555H284.218L280.998 95.6467Z" fill="#00B2E2"/>
<path d="M280.998 95.6467H271.244L268.024 86.5555H284.218L280.998 95.6467Z" stroke="#010101" stroke-width="4.5217" stroke-miterlimit="10" stroke-linecap="round" stroke-linejoin="round"/>
<path d="M286.49 133.242L275.884 142.712L265.751 133.242L271.907 95.6466H280.335L286.49 133.242Z" fill="#00B2E2"/>
<path d="M286.49 133.242L275.884 142.712L265.751 133.242L271.907 95.6466H280.335L286.49 133.242Z" stroke="#010101" stroke-width="4.5217" stroke-miterlimit="10" stroke-linecap="round" stroke-linejoin="round"/>
<path d="M264.236 74.2445L255.808 77.4643L264.899 93.6579L275.884 86.2714L264.236 74.2445Z" fill="#00B2E2"/>
<path d="M264.236 74.2445L255.808 77.4643L264.899 93.6579L275.884 86.2714L264.236 74.2445Z" stroke="#010101" stroke-width="4.5217" stroke-miterlimit="10" stroke-linecap="round" stroke-linejoin="round"/>
<path d="M288.006 74.2445L296.434 77.4643L287.343 93.6579L276.263 86.2714L288.006 74.2445Z" fill="#00B2E2"/>
<path d="M288.006 74.2445L296.434 77.4643L287.343 93.6579L276.263 86.2714L288.006 74.2445Z" stroke="#010101" stroke-width="4.5217" stroke-miterlimit="10" stroke-linecap="round" stroke-linejoin="round"/>
</svg>
