<svg width="114" height="126" viewBox="0 0 114 126" fill="none" xmlns="http://www.w3.org/2000/svg">
<path d="M41.627 27C41.627 27 40.569 43.4782 49.5 48.4921L47.8158 51C47.8158 51 35.3639 49.6926 34.5 29.6296" stroke="black" stroke-width="5" stroke-miterlimit="10" stroke-linecap="round" stroke-linejoin="round"/>
<path d="M46.5 15L55.5 16.7085V25.334L46.5 27" stroke="black" stroke-width="5" stroke-miterlimit="10" stroke-linecap="round" stroke-linejoin="round"/>
<path d="M28.3804 44.9982C28.3804 44.9982 25.5029 26.3148 46.5 26.937V15.7269L15.0017 15.0254C15.0017 15.0254 3 14.0534 3 24.1363C3 32.8558 13.1489 32.2318 13.1489 32.2318L16.0264 45" stroke="black" stroke-width="5" stroke-miterlimit="10" stroke-linecap="round" stroke-linejoin="round"/>
<path d="M28.5063 45C28.5063 45 27.5719 69.5163 44.1106 76.2205C45.6818 76.8574 46.8046 78.2511 46.9822 79.9131L50.9712 117.372C51.2922 120.38 48.8924 123 45.8181 123H9.68074C6.72131 123 4.36273 120.567 4.50622 117.66L7.23068 61.9123C7.31678 60.1639 7.84231 58.4631 8.76422 56.9653L16.1198 45H28.5063Z" stroke="black" stroke-width="5" stroke-miterlimit="10" stroke-linecap="round" stroke-linejoin="round"/>
<path d="M61.5 22.5H111" stroke="black" stroke-width="5" stroke-miterlimit="10" stroke-linecap="round" stroke-linejoin="round"/>
<path d="M61.5 16.5L109.5 3" stroke="black" stroke-width="5" stroke-miterlimit="10" stroke-linecap="round" stroke-linejoin="round"/>
<path d="M109.5 40.5L61.5 28.5" stroke="black" stroke-width="5" stroke-miterlimit="10" stroke-linecap="round" stroke-linejoin="round"/>
</svg>
